<svg id="svg" version="1.1" xmlns="http://www.w3.org/2000/svg" xmlns:xlink="http://www.w3.org/1999/xlink" width="400" height="147.9115479115479" viewBox="0, 0, 400,147.9115479115479"><g id="svgg"><path id="path0" d="M313.636 17.675 L 308.600 22.208 308.600 26.092 L 308.600 29.975 305.405 29.975 L 302.211 29.975 302.211 34.152 L 302.211 38.329 305.358 38.329 L 308.504 38.329 308.686 55.405 C 308.858 71.482,308.929 72.611,309.896 74.693 C 312.347 79.970,318.127 81.963,325.676 80.134 L 328.256 79.509 328.256 75.209 L 328.256 70.909 324.631 71.142 C 318.635 71.527,318.919 72.390,318.919 53.808 L 318.919 38.329 323.587 38.329 L 328.256 38.329 328.256 34.152 L 328.256 29.975 323.599 29.975 L 318.942 29.975 318.808 21.559 L 318.673 13.142 313.636 17.675 M21.376 15.966 C 21.106 16.056,20.280 16.263,19.542 16.426 C 13.846 17.681,13.192 20.344,13.367 41.570 L 13.514 59.288 14.897 61.378 C 17.168 64.807,18.952 65.333,28.365 65.345 L 36.337 65.356 36.473 89.597 L 36.609 113.837 38.097 116.242 C 40.636 120.349,43.243 121.572,50.082 121.867 L 55.774 122.113 56.020 125.872 C 56.431 132.166,57.796 132.857,69.305 132.601 C 80.526 132.352,80.591 132.279,80.588 120.001 C 80.585 107.651,80.342 107.431,66.963 107.701 C 56.927 107.904,56.419 108.214,56.020 114.383 L 55.774 118.182 51.091 118.321 C 41.292 118.613,39.803 116.446,39.803 101.888 L 39.803 91.892 61.916 91.892 L 84.029 91.892 84.029 95.063 C 84.029 102.257,84.395 102.417,101.229 102.619 C 117.526 102.813,119.566 102.623,121.460 100.729 L 122.850 99.338 122.850 90.218 L 122.850 81.097 121.417 79.492 L 119.983 77.887 104.231 77.745 C 84.466 77.566,84.029 77.728,84.029 85.239 L 84.029 88.462 62.039 88.334 L 40.049 88.206 39.917 76.781 L 39.785 65.356 65.363 65.356 C 101.124 65.356,98.254 67.478,98.267 41.032 C 98.276 19.879,97.761 17.974,91.558 16.252 C 89.856 15.779,22.755 15.506,21.376 15.966 M92.990 21.089 L 94.595 22.523 94.750 39.394 C 94.923 58.138,94.775 59.406,92.234 60.955 C 90.716 61.880,89.490 61.913,55.920 61.915 C 18.966 61.917,19.480 61.949,17.820 59.507 C 16.757 57.943,16.202 26.798,17.178 23.491 C 18.388 19.390,15.703 19.656,55.832 19.656 L 91.385 19.656 92.990 21.089 M261.179 29.393 C 247.308 33.501,239.302 47.706,242.923 61.786 C 248.194 82.286,275.935 88.428,291.628 72.569 L 295.542 68.614 291.453 66.740 C 286.546 64.490,286.339 64.476,285.045 66.293 C 276.836 77.821,256.273 73.152,253.328 59.091 L 252.993 57.494 274.162 57.494 L 295.332 57.494 295.332 56.063 C 295.332 38.144,277.816 24.465,261.179 29.393 M350.492 29.230 C 345.218 30.713,341.249 33.368,338.298 37.389 C 337.305 38.742,336.573 39.917,336.673 39.999 C 336.773 40.081,338.900 40.674,341.400 41.317 L 345.945 42.485 347.359 40.771 C 351.954 35.196,363.120 35.427,366.670 41.170 C 367.707 42.848,368.778 52.580,367.926 52.580 C 367.789 52.580,366.271 51.924,364.551 51.121 C 348.434 43.602,331.516 55.549,337.128 70.487 C 341.258 81.481,355.049 84.064,366.339 75.958 L 368.796 74.194 368.942 77.146 L 369.089 80.098 377.910 80.098 L 386.732 80.098 386.732 75.676 L 386.732 71.253 382.334 71.253 L 377.937 71.253 377.789 55.160 L 377.641 39.066 376.167 36.393 C 372.588 29.904,360.291 26.473,350.492 29.230 M179.361 29.890 C 175.818 31.074,173.149 32.472,170.344 34.613 L 168.059 36.357 168.059 33.166 L 168.059 29.975 158.968 29.975 L 149.877 29.975 149.877 34.152 L 149.877 38.329 154.054 38.329 L 158.231 38.329 158.231 54.791 L 158.231 71.253 153.808 71.253 L 149.386 71.253 149.386 75.676 L 149.386 80.098 163.145 80.098 L 176.904 80.098 176.904 75.676 L 176.904 71.253 172.482 71.253 L 168.059 71.253 168.059 57.775 L 168.059 44.297 171.125 42.419 C 178.302 38.021,183.484 37.063,186.301 39.613 C 188.584 41.678,188.698 42.739,188.698 61.976 L 188.698 80.098 198.034 80.098 L 207.371 80.098 207.371 75.676 L 207.371 71.253 202.948 71.253 L 198.526 71.253 198.526 57.743 L 198.526 44.232 200.614 42.709 C 205.173 39.384,208.321 38.127,212.150 38.104 C 218.888 38.065,219.165 39.047,219.165 62.966 L 219.165 80.098 228.256 80.098 L 237.346 80.098 237.346 75.676 L 237.346 71.253 233.170 71.253 L 228.993 71.253 228.993 56.127 C 228.993 45.034,228.816 40.320,228.331 38.448 C 225.636 28.059,213.745 25.911,201.935 33.681 C 197.886 36.345,197.052 36.734,197.052 35.961 C 197.052 35.040,193.359 31.340,191.471 30.368 C 188.621 28.903,182.984 28.680,179.361 29.890 M34.833 30.625 C 23.506 34.852,26.190 51.045,38.226 51.095 C 48.798 51.139,52.614 36.660,43.376 31.553 C 40.829 30.145,37.182 29.749,34.833 30.625 M56.347 32.269 C 55.557 33.058,56.050 34.878,57.125 35.141 C 57.733 35.290,63.846 35.349,70.708 35.273 C 83.940 35.127,84.733 34.975,83.877 32.745 C 83.557 31.911,57.161 31.455,56.347 32.269 M41.260 34.521 C 47.695 37.820,45.427 47.666,38.232 47.666 C 28.792 47.666,28.903 34.013,38.348 33.460 C 38.764 33.435,40.074 33.913,41.260 34.521 M275.818 38.094 C 279.999 40.147,284.983 46.337,285.007 49.509 C 285.011 49.987,281.542 50.123,269.287 50.123 C 251.872 50.123,252.997 50.376,254.280 46.739 C 257.441 37.781,267.200 33.864,275.818 38.094 M56.172 46.996 C 55.370 49.085,56.434 49.386,64.619 49.386 C 72.805 49.386,73.868 49.085,73.067 46.996 C 72.798 46.296,71.701 46.192,64.619 46.192 C 57.537 46.192,56.440 46.296,56.172 46.996 M360.403 57.212 C 361.684 57.597,363.930 58.639,365.395 59.527 L 368.059 61.141 368.059 64.229 C 368.059 71.562,353.902 76.101,348.174 70.605 C 340.588 63.325,349.239 53.852,360.403 57.212 M118.460 81.590 C 119.420 82.104,119.964 95.775,119.112 97.994 C 118.722 99.009,89.066 99.189,88.059 98.182 C 87.088 97.211,87.249 82.846,88.241 81.853 C 89.177 80.918,116.755 80.677,118.460 81.590 M149.386 101.474 C 149.386 103.112,149.468 103.194,151.106 103.194 L 152.826 103.194 152.826 117.445 L 152.826 131.695 151.106 131.695 C 149.468 131.695,149.386 131.777,149.386 133.415 L 149.386 135.135 154.791 135.135 L 160.197 135.135 160.197 133.415 C 160.197 131.777,160.115 131.695,158.477 131.695 L 156.757 131.695 156.757 115.725 L 156.757 99.754 153.071 99.754 L 149.386 99.754 149.386 101.474 M375.430 101.474 C 375.430 103.112,375.512 103.194,377.150 103.194 L 378.870 103.194 378.870 117.445 L 378.870 131.695 377.150 131.695 C 375.512 131.695,375.430 131.777,375.430 133.415 L 375.430 135.135 381.081 135.135 L 386.732 135.135 386.732 133.415 C 386.732 131.777,386.650 131.695,385.012 131.695 L 383.292 131.695 383.292 115.725 L 383.292 99.754 379.361 99.754 L 375.430 99.754 375.430 101.474 M202.369 110.728 C 190.723 114.024,191.114 131.896,202.898 134.915 C 209.156 136.518,219.165 133.223,219.165 129.559 C 219.165 128.047,215.673 127.570,214.558 128.929 C 209.820 134.705,199.954 131.909,198.772 124.457 L 198.443 122.378 209.172 122.246 L 219.902 122.113 219.736 120.147 C 219.103 112.630,211.060 108.268,202.369 110.728 M325.168 110.579 C 312.349 113.813,313.088 132.782,326.128 135.192 C 333.990 136.646,345.819 130.403,339.288 128.247 C 337.671 127.714,337.488 127.764,336.509 129.008 C 331.873 134.902,320.945 131.366,320.895 123.956 L 320.885 122.359 331.518 122.359 L 342.152 122.359 341.857 119.870 C 341.009 112.713,333.432 108.494,325.168 110.579 M253.563 112.285 C 253.563 113.943,253.629 114.005,255.405 114.015 L 257.248 114.026 261.444 124.458 L 265.640 134.889 268.027 134.889 L 270.415 134.889 274.678 124.570 L 278.942 114.251 280.749 114.098 C 282.450 113.954,282.555 113.847,282.555 112.255 L 282.555 110.565 277.396 110.565 L 272.236 110.565 272.236 112.285 C 272.236 113.677,272.423 114.005,273.219 114.005 C 273.759 114.005,274.201 114.105,274.201 114.227 C 274.201 114.826,268.162 130.734,267.997 130.569 C 267.812 130.384,261.916 114.478,261.916 114.164 C 261.916 114.076,262.359 114.005,262.899 114.005 C 263.695 114.005,263.882 113.677,263.882 112.285 L 263.882 110.565 258.722 110.565 L 253.563 110.565 253.563 112.285 M76.670 112.039 C 77.452 113.279,77.276 127.539,76.470 128.208 C 76.004 128.594,73.262 128.729,67.748 128.637 L 59.705 128.501 59.570 120.396 C 59.448 113.107,59.522 112.225,60.307 111.645 C 61.630 110.667,76.023 111.014,76.670 112.039 M210.402 114.020 C 212.264 114.537,215.233 117.408,215.233 118.690 C 215.233 119.436,200.091 119.829,199.364 119.102 C 198.952 118.689,200.153 116.429,201.371 115.327 C 203.236 113.639,207.047 113.088,210.402 114.020 M334.421 114.712 C 335.830 115.635,337.672 118.391,337.292 119.007 C 336.898 119.645,321.376 119.513,321.376 118.872 C 321.376 114.712,330.151 111.914,334.421 114.712 " stroke="none" fill="#888888" fill-rule="evenodd"></path></g></svg>
